<svg xmlns="http://www.w3.org/2000/svg" xmlns:xlink="http://www.w3.org/1999/xlink" width="2500" zoomAndPan="magnify" viewBox="0 0 1874.88 749.999995" height="1000" preserveAspectRatio="xMidYMid meet" version="1.0"><defs><g/><clipPath id="f5df9199bf"><path d="M 0 0.0234375 L 1874.761719 0.0234375 L 1874.761719 749.976562 L 0 749.976562 Z M 0 0.0234375 " clip-rule="nonzero"/></clipPath><clipPath id="bd2e74c187"><path d="M 74.996094 75.019531 L 674.957031 75.019531 L 674.957031 674.980469 L 74.996094 674.980469 Z M 74.996094 75.019531 " clip-rule="nonzero"/></clipPath><clipPath id="5851ebdc91"><path d="M 194.550781 195.574219 L 555.726562 195.574219 L 555.726562 547.152344 L 194.550781 547.152344 Z M 194.550781 195.574219 " clip-rule="nonzero"/></clipPath><clipPath id="9e08d229f0"><path d="M 360 135.015625 L 390 135.015625 L 390 614.984375 L 360 614.984375 Z M 360 135.015625 " clip-rule="nonzero"/></clipPath></defs><g clip-path="url(#f5df9199bf)"><path fill="#ffffff" d="M 0 0.0234375 L 1874.878906 0.0234375 L 1874.878906 749.976562 L 0 749.976562 Z M 0 0.0234375 " fill-opacity="1" fill-rule="nonzero"/><path fill="#ffffff" d="M 0 0.0234375 L 1874.878906 0.0234375 L 1874.878906 749.976562 L 0 749.976562 Z M 0 0.0234375 " fill-opacity="1" fill-rule="nonzero"/></g><g clip-path="url(#bd2e74c187)"><path fill="#ffffff" d="M 15 15.023438 L 734.953125 15.023438 L 734.953125 734.976562 L 15 734.976562 Z M 15 15.023438 " fill-opacity="1" fill-rule="nonzero"/><path fill="#ffffff" d="M 15 15.023438 L 734.953125 15.023438 L 734.953125 734.976562 L 15 734.976562 Z M 15 15.023438 " fill-opacity="1" fill-rule="nonzero"/></g><g clip-path="url(#5851ebdc91)"><path fill="#00275b" d="M 555.128906 367.289062 C 555.128906 466.757812 474.5 547.390625 375.027344 547.390625 C 275.558594 547.390625 194.917969 466.757812 194.917969 367.289062 C 194.917969 286.804688 247.722656 218.660156 320.5625 195.574219 C 282.496094 215.292969 256.484375 255.050781 256.484375 300.890625 C 256.484375 366.355469 309.550781 419.433594 375.027344 419.433594 C 440.496094 419.433594 493.574219 366.355469 493.574219 300.890625 C 493.574219 255.050781 467.5625 215.304688 429.492188 195.574219 C 502.335938 218.660156 555.128906 286.804688 555.128906 367.289062 " fill-opacity="1" fill-rule="nonzero"/></g><path fill="#00275b" d="M 386.675781 322.101562 L 440.390625 315.496094 L 386.675781 308.890625 L 407 283.242188 L 381.15625 304.109375 L 375.027344 243.171875 L 368.914062 304.128906 L 343.078125 283.242188 L 363.40625 308.890625 L 309.65625 315.496094 L 363.40625 322.101562 L 343.078125 347.75 L 368.921875 326.890625 L 375.027344 387.824219 L 381.15625 326.914062 L 407 347.75 L 386.675781 322.101562 " fill-opacity="1" fill-rule="evenodd"/><g clip-path="url(#9e08d229f0)"><path fill="#a6a6a6" d="M 379.375 567.300781 C 379.375 567.300781 385.019531 560.957031 384.386719 558.417969 C 383.761719 555.882812 382.824219 552.4375 379.53125 549.359375 C 379.53125 549.359375 387.050781 539.390625 384.074219 520.902344 C 381.101562 502.417969 378.59375 473.960938 378.28125 462.726562 C 377.96875 451.488281 378.4375 437.347656 383.449219 433.175781 C 388.460938 429.007812 380.789062 430.640625 380.945312 424.117188 C 381.101562 417.589844 385.800781 411.972656 385.800781 411.972656 L 382.6875 409.433594 L 385.332031 405.085938 L 381.101562 401.460938 L 382.6875 398.921875 C 382.6875 398.921875 379.6875 396.023438 378.90625 393.667969 C 378.125 391.3125 377.65625 388.59375 380.164062 382.429688 L 382.6875 379.894531 L 380.164062 378.082031 C 380.164062 378.082031 382.039062 378.082031 381.414062 367.933594 C 380.789062 357.78125 378.75 298.328125 378.75 298.328125 L 377.96875 237.613281 L 377.8125 162.757812 C 377.8125 162.757812 378.59375 137.566406 375.621094 135.210938 C 375.363281 135.007812 374.589844 135.007812 374.332031 135.210938 C 371.359375 137.566406 372.140625 162.757812 372.140625 162.757812 L 371.984375 237.613281 L 371.203125 298.328125 C 371.203125 298.328125 369.164062 357.78125 368.539062 367.933594 C 367.914062 378.082031 369.796875 378.082031 369.796875 378.082031 L 367.269531 379.894531 L 369.796875 382.429688 C 372.300781 388.59375 371.828125 391.3125 371.046875 393.667969 C 370.265625 396.023438 367.269531 398.921875 367.269531 398.921875 L 368.851562 401.460938 L 364.625 405.085938 L 367.269531 409.433594 L 364.152344 411.972656 C 364.152344 411.972656 368.851562 417.589844 369.007812 424.117188 C 369.164062 430.640625 361.488281 429.007812 366.5 433.175781 C 371.515625 437.347656 371.984375 451.488281 371.671875 462.726562 C 371.359375 473.960938 368.851562 502.417969 365.875 520.902344 C 362.902344 539.390625 370.421875 549.359375 370.421875 549.359375 C 367.132812 552.4375 366.1875 555.882812 365.5625 558.417969 C 364.9375 560.957031 370.578125 567.300781 370.578125 567.300781 C 360.863281 575.09375 359.140625 586.511719 360.707031 600.105469 C 362.277344 613.695312 374.332031 614.972656 374.332031 614.972656 L 375.621094 614.972656 C 375.621094 614.972656 387.679688 613.695312 389.242188 600.105469 C 390.8125 586.511719 389.085938 575.09375 379.375 567.300781 " fill-opacity="1" fill-rule="nonzero"/></g><g fill="#00275b" fill-opacity="1"><g transform="translate(674.956772, 336.002499)"><g><path d="M 40.691406 -28.113281 C 25.894531 -28.113281 15.539062 -37.734375 15.539062 -37.734375 L 1.480469 -15.539062 C 1.480469 -15.539062 14.796875 2.21875 47.351562 2.21875 C 73.246094 2.21875 89.523438 -14.058594 89.523438 -31.074219 C 89.523438 -63.628906 49.570312 -63.628906 49.570312 -71.027344 C 49.570312 -73.246094 51.789062 -75.464844 55.488281 -75.464844 C 65.847656 -75.464844 74.726562 -67.328125 74.726562 -67.328125 L 88.785156 -89.523438 C 88.785156 -89.523438 75.464844 -105.800781 48.832031 -105.800781 C 22.9375 -105.800781 6.660156 -89.523438 6.660156 -72.507812 C 6.660156 -39.953125 46.613281 -39.953125 46.613281 -32.554688 C 46.613281 -30.335938 44.390625 -28.113281 40.691406 -28.113281 Z M 40.691406 -28.113281 "/></g></g></g><g fill="#00275b" fill-opacity="1"><g transform="translate(788.150393, 336.002499)"><g><path d="M 94.703125 -39.210938 C 94.703125 -65.847656 79.90625 -80.644531 63.628906 -80.644531 C 48.832031 -80.644531 42.914062 -69.546875 42.914062 -69.546875 C 42.914062 -69.546875 42.914062 -69.546875 39.953125 -78.425781 L 7.398438 -78.425781 L 7.398438 36.992188 L 42.914062 36.992188 L 42.914062 -8.878906 C 42.914062 -8.878906 48.832031 2.21875 63.628906 2.21875 C 79.90625 2.21875 94.703125 -12.578125 94.703125 -39.210938 Z M 57.710938 -39.210938 C 57.710938 -31.8125 54.011719 -28.113281 49.570312 -28.113281 C 45.132812 -28.113281 41.433594 -31.8125 41.433594 -39.210938 C 41.433594 -46.613281 45.132812 -50.3125 49.570312 -50.3125 C 54.011719 -50.3125 57.710938 -46.613281 57.710938 -39.210938 Z M 57.710938 -39.210938 "/></g></g></g><g fill="#00275b" fill-opacity="1"><g transform="translate(908.002355, 336.002499)"><g><path d="M 45.871094 -80.644531 C 22.9375 -80.644531 4.4375 -62.148438 4.4375 -39.210938 C 4.4375 -16.277344 22.9375 2.21875 48.089844 2.21875 C 68.066406 2.21875 79.164062 -9.617188 79.164062 -9.617188 L 66.585938 -29.59375 C 66.585938 -29.59375 60.667969 -23.675781 53.269531 -23.675781 C 41.433594 -23.675781 39.953125 -31.8125 39.953125 -31.8125 L 87.304688 -31.8125 C 87.304688 -32.40625 87.304688 -38.621094 87.304688 -39.210938 C 87.304688 -62.148438 68.808594 -80.644531 45.871094 -80.644531 Z M 39.210938 -45.871094 C 39.210938 -51.789062 42.171875 -54.75 45.871094 -54.75 C 49.570312 -54.75 52.53125 -51.789062 52.53125 -45.871094 Z M 39.210938 -45.871094 "/></g></g></g><g fill="#00275b" fill-opacity="1"><g transform="translate(1018.976548, 336.002499)"><g><path d="M 7.398438 0 L 42.914062 0 L 42.914062 -109.5 L 7.398438 -109.5 Z M 7.398438 0 "/></g></g></g><g fill="#00275b" fill-opacity="1"><g transform="translate(1090.00067, 336.002499)"><g><path d="M 7.398438 0 L 42.914062 0 L 42.914062 -109.5 L 7.398438 -109.5 Z M 7.398438 0 "/></g></g></g><g fill="#00275b" fill-opacity="1"><g transform="translate(1161.024793, 336.002499)"><g><path d="M 94.703125 -39.210938 C 94.703125 -65.847656 79.90625 -80.644531 63.628906 -80.644531 C 48.832031 -80.644531 42.914062 -69.546875 42.914062 -69.546875 L 42.914062 -109.5 L 7.398438 -109.5 L 7.398438 0 L 39.953125 0 C 42.914062 -8.878906 42.914062 -8.878906 42.914062 -8.878906 C 42.914062 -8.878906 48.832031 2.21875 63.628906 2.21875 C 79.90625 2.21875 94.703125 -12.578125 94.703125 -39.210938 Z M 57.710938 -39.210938 C 57.710938 -31.8125 54.011719 -28.113281 49.570312 -28.113281 C 45.132812 -28.113281 41.433594 -31.8125 41.433594 -39.210938 C 41.433594 -46.613281 45.132812 -50.3125 49.570312 -50.3125 C 54.011719 -50.3125 57.710938 -46.613281 57.710938 -39.210938 Z M 57.710938 -39.210938 "/></g></g></g><g fill="#00275b" fill-opacity="1"><g transform="translate(1280.876766, 336.002499)"><g><path d="M 4.4375 -39.210938 C 4.4375 -16.277344 22.9375 2.21875 49.570312 2.21875 C 76.207031 2.21875 94.703125 -16.277344 94.703125 -39.210938 C 94.703125 -62.148438 76.207031 -80.644531 49.570312 -80.644531 C 22.9375 -80.644531 4.4375 -62.148438 4.4375 -39.210938 Z M 59.1875 -39.210938 C 59.1875 -32.554688 54.75 -28.113281 49.570312 -28.113281 C 44.390625 -28.113281 39.953125 -32.554688 39.953125 -39.210938 C 39.953125 -45.871094 44.390625 -50.3125 49.570312 -50.3125 C 54.75 -50.3125 59.1875 -45.871094 59.1875 -39.210938 Z M 59.1875 -39.210938 "/></g></g></g><g fill="#00275b" fill-opacity="1"><g transform="translate(1400.72874, 336.002499)"><g><path d="M 34.035156 2.21875 C 47.351562 2.21875 53.269531 -8.878906 53.269531 -8.878906 L 56.230469 0 L 90.261719 0 L 90.261719 -78.425781 L 54.75 -78.425781 L 54.75 -36.992188 C 54.75 -31.074219 51.789062 -28.113281 48.832031 -28.113281 C 45.871094 -28.113281 42.914062 -31.074219 42.914062 -36.992188 L 42.914062 -78.425781 L 7.398438 -78.425781 L 7.398438 -36.992188 C 7.398438 -9.617188 19.238281 2.21875 34.035156 2.21875 Z M 34.035156 2.21875 "/></g></g></g><g fill="#00275b" fill-opacity="1"><g transform="translate(1519.101042, 336.002499)"><g><path d="M 63.628906 -80.644531 C 50.3125 -80.644531 44.390625 -69.546875 44.390625 -69.546875 L 41.433594 -78.425781 L 7.398438 -78.425781 L 7.398438 0 L 42.914062 0 L 42.914062 -41.433594 C 42.914062 -47.351562 45.871094 -50.3125 48.832031 -50.3125 C 51.789062 -50.3125 54.75 -47.351562 54.75 -41.433594 L 54.75 0 L 90.261719 0 L 90.261719 -41.433594 C 90.261719 -68.808594 78.425781 -80.644531 63.628906 -80.644531 Z M 63.628906 -80.644531 "/></g></g></g><g fill="#00275b" fill-opacity="1"><g transform="translate(1635.993762, 336.002499)"><g><path d="M 4.4375 -39.210938 C 4.4375 -12.578125 19.238281 2.21875 35.511719 2.21875 C 50.3125 2.21875 56.230469 -8.878906 56.230469 -8.878906 C 56.230469 -8.878906 56.230469 -8.878906 59.1875 0 L 91.742188 0 L 91.742188 -109.5 L 56.230469 -109.5 L 56.230469 -69.546875 C 56.230469 -69.546875 50.3125 -80.644531 35.511719 -80.644531 C 19.238281 -80.644531 4.4375 -65.847656 4.4375 -39.210938 Z M 41.433594 -39.210938 C 41.433594 -46.613281 45.132812 -50.3125 49.570312 -50.3125 C 54.011719 -50.3125 57.710938 -46.613281 57.710938 -39.210938 C 57.710938 -31.8125 54.011719 -28.113281 49.570312 -28.113281 C 45.132812 -28.113281 41.433594 -31.8125 41.433594 -39.210938 Z M 41.433594 -39.210938 "/></g></g></g><g fill="#a6a6a6" fill-opacity="1"><g transform="translate(674.956772, 506.991548)"><g><path d="M 2.960938 -103.582031 L 2.960938 -69.546875 L 31.074219 -69.546875 L 31.074219 0 L 69.546875 0 L 69.546875 -69.546875 L 97.664062 -69.546875 L 97.664062 -103.582031 Z M 2.960938 -103.582031 "/></g></g></g><g fill="#a6a6a6" fill-opacity="1"><g transform="translate(796.288372, 506.991548)"><g><path d="M 44.390625 -69.546875 L 41.433594 -78.425781 L 7.398438 -78.425781 L 7.398438 0 L 42.914062 0 L 42.914062 -32.554688 C 42.914062 -42.914062 48.832031 -48.832031 56.230469 -48.832031 C 60.667969 -48.832031 66.585938 -45.871094 66.585938 -45.871094 L 72.507812 -78.425781 C 72.507812 -78.425781 68.066406 -80.644531 62.148438 -80.644531 C 50.3125 -80.644531 44.390625 -69.546875 44.390625 -69.546875 Z M 44.390625 -69.546875 "/></g></g></g><g fill="#a6a6a6" fill-opacity="1"><g transform="translate(888.027354, 506.991548)"><g><path d="M 45.871094 -80.644531 C 22.9375 -80.644531 4.4375 -62.148438 4.4375 -39.210938 C 4.4375 -16.277344 22.9375 2.21875 48.089844 2.21875 C 68.066406 2.21875 79.164062 -9.617188 79.164062 -9.617188 L 66.585938 -29.59375 C 66.585938 -29.59375 60.667969 -23.675781 53.269531 -23.675781 C 41.433594 -23.675781 39.953125 -31.8125 39.953125 -31.8125 L 87.304688 -31.8125 C 87.304688 -32.40625 87.304688 -38.621094 87.304688 -39.210938 C 87.304688 -62.148438 68.808594 -80.644531 45.871094 -80.644531 Z M 39.210938 -45.871094 C 39.210938 -51.789062 42.171875 -54.75 45.871094 -54.75 C 49.570312 -54.75 52.53125 -51.789062 52.53125 -45.871094 Z M 39.210938 -45.871094 "/></g></g></g><g fill="#a6a6a6" fill-opacity="1"><g transform="translate(999.001525, 506.991548)"><g><path d="M 42.171875 -80.644531 C 22.195312 -80.644531 11.097656 -68.808594 11.097656 -68.808594 L 23.675781 -48.832031 C 23.675781 -48.832031 29.59375 -54.75 36.992188 -54.75 C 48.832031 -54.75 50.3125 -46.613281 50.3125 -46.613281 L 38.472656 -46.613281 C 13.316406 -46.613281 2.960938 -36.253906 2.960938 -22.195312 C 2.960938 -8.136719 13.316406 2.21875 29.59375 2.21875 C 42.914062 2.21875 48.832031 -8.878906 48.832031 -8.878906 L 51.789062 0 L 85.824219 0 C 85.824219 -11.542969 85.824219 -26.488281 85.824219 -39.210938 C 85.824219 -62.148438 67.328125 -80.644531 42.171875 -80.644531 Z M 42.914062 -21.457031 C 40.691406 -21.457031 38.472656 -23.675781 38.472656 -25.894531 C 38.472656 -30.335938 42.171875 -34.035156 50.3125 -34.035156 C 50.3125 -25.15625 46.613281 -21.457031 42.914062 -21.457031 Z M 42.914062 -21.457031 "/></g></g></g><g fill="#a6a6a6" fill-opacity="1"><g transform="translate(1111.455321, 506.991548)"><g><path d="M 73.246094 -23.675781 C 73.246094 -47.351562 44.390625 -48.832031 44.390625 -53.269531 C 44.390625 -54.75 45.871094 -56.230469 48.089844 -56.230469 C 56.230469 -56.230469 62.148438 -50.3125 62.148438 -50.3125 L 73.246094 -68.066406 C 73.246094 -68.066406 60.667969 -80.644531 40.691406 -80.644531 C 17.757812 -80.644531 5.917969 -68.808594 5.917969 -54.75 C 5.917969 -31.074219 34.773438 -29.59375 34.773438 -25.15625 C 34.773438 -23.675781 33.292969 -22.195312 31.074219 -22.195312 C 19.976562 -22.195312 12.578125 -29.59375 12.578125 -29.59375 L 1.480469 -11.835938 C 1.480469 -11.835938 14.058594 2.21875 38.472656 2.21875 C 61.410156 2.21875 73.246094 -9.617188 73.246094 -23.675781 Z M 73.246094 -23.675781 "/></g></g></g><g fill="#a6a6a6" fill-opacity="1"><g transform="translate(1208.373019, 506.991548)"><g><path d="M 34.035156 2.21875 C 47.351562 2.21875 53.269531 -8.878906 53.269531 -8.878906 L 56.230469 0 L 90.261719 0 L 90.261719 -78.425781 L 54.75 -78.425781 L 54.75 -36.992188 C 54.75 -31.074219 51.789062 -28.113281 48.832031 -28.113281 C 45.871094 -28.113281 42.914062 -31.074219 42.914062 -36.992188 L 42.914062 -78.425781 L 7.398438 -78.425781 L 7.398438 -36.992188 C 7.398438 -9.617188 19.238281 2.21875 34.035156 2.21875 Z M 34.035156 2.21875 "/></g></g></g><g fill="#a6a6a6" fill-opacity="1"><g transform="translate(1326.745366, 506.991548)"><g><path d="M 44.390625 -69.546875 L 41.433594 -78.425781 L 7.398438 -78.425781 L 7.398438 0 L 42.914062 0 L 42.914062 -32.554688 C 42.914062 -42.914062 48.832031 -48.832031 56.230469 -48.832031 C 60.667969 -48.832031 66.585938 -45.871094 66.585938 -45.871094 L 72.507812 -78.425781 C 72.507812 -78.425781 68.066406 -80.644531 62.148438 -80.644531 C 50.3125 -80.644531 44.390625 -69.546875 44.390625 -69.546875 Z M 44.390625 -69.546875 "/></g></g></g><g fill="#a6a6a6" fill-opacity="1"><g transform="translate(1418.484348, 506.991548)"><g><path d="M 45.871094 -80.644531 C 22.9375 -80.644531 4.4375 -62.148438 4.4375 -39.210938 C 4.4375 -16.277344 22.9375 2.21875 48.089844 2.21875 C 68.066406 2.21875 79.164062 -9.617188 79.164062 -9.617188 L 66.585938 -29.59375 C 66.585938 -29.59375 60.667969 -23.675781 53.269531 -23.675781 C 41.433594 -23.675781 39.953125 -31.8125 39.953125 -31.8125 L 87.304688 -31.8125 C 87.304688 -32.40625 87.304688 -38.621094 87.304688 -39.210938 C 87.304688 -62.148438 68.808594 -80.644531 45.871094 -80.644531 Z M 39.210938 -45.871094 C 39.210938 -51.789062 42.171875 -54.75 45.871094 -54.75 C 49.570312 -54.75 52.53125 -51.789062 52.53125 -45.871094 Z M 39.210938 -45.871094 "/></g></g></g><g fill="#a6a6a6" fill-opacity="1"><g transform="translate(1529.458564, 506.991548)"><g><path d="M 73.246094 -23.675781 C 73.246094 -47.351562 44.390625 -48.832031 44.390625 -53.269531 C 44.390625 -54.75 45.871094 -56.230469 48.089844 -56.230469 C 56.230469 -56.230469 62.148438 -50.3125 62.148438 -50.3125 L 73.246094 -68.066406 C 73.246094 -68.066406 60.667969 -80.644531 40.691406 -80.644531 C 17.757812 -80.644531 5.917969 -68.808594 5.917969 -54.75 C 5.917969 -31.074219 34.773438 -29.59375 34.773438 -25.15625 C 34.773438 -23.675781 33.292969 -22.195312 31.074219 -22.195312 C 19.976562 -22.195312 12.578125 -29.59375 12.578125 -29.59375 L 1.480469 -11.835938 C 1.480469 -11.835938 14.058594 2.21875 38.472656 2.21875 C 61.410156 2.21875 73.246094 -9.617188 73.246094 -23.675781 Z M 73.246094 -23.675781 "/></g></g></g></svg>